<svg xmlns="http://www.w3.org/2000/svg" width="430" height="387" fill="none"><path fill="#CECECE" d="M82.995 307.128a40.1 40.1 0 0 0 38.714-6.819c13.559-11.382 17.811-30.127 21.269-47.488l10.232-51.353-21.42 14.749c-15.406 10.607-31.157 21.555-41.823 36.918-10.665 15.363-15.319 36.337-6.752 52.961"/><path fill="#F0F0F0" d="M86.302 372.875c-2.696-19.642-5.47-39.538-3.574-59.391 1.68-17.632 7.059-34.85 18.011-48.974a81.457 81.457 0 0 1 20.902-18.941c2.089-1.319 4.013 1.992 1.932 3.306a77.456 77.456 0 0 0-30.637 36.964c-6.67 16.964-7.74 35.457-6.592 53.479.695 10.897 2.17 21.724 3.652 32.538a1.982 1.982 0 0 1-1.337 2.355 1.928 1.928 0 0 1-2.356-1.338l-.001.002Z"/><path fill="#CECECE" d="M105.708 341.357a29.523 29.523 0 0 0 25.715 13.277c13.021-.618 23.872-9.702 33.639-18.329l28.894-25.512-19.122-.915c-13.753-.659-27.86-1.277-40.959 2.969-13.098 4.246-25.178 14.448-27.573 28.006"/><path fill="#F0F0F0" d="M78.68 384.167c12.98-22.967 28.035-48.491 54.937-56.65a61.326 61.326 0 0 1 23.106-2.386c2.453.212 1.841 3.993-.608 3.783a56.95 56.95 0 0 0-36.874 9.755c-10.398 7.077-18.494 16.917-25.345 27.35-4.197 6.392-7.957 13.054-11.716 19.708-1.201 2.126-4.714.591-3.5-1.56ZM20.34 71.264a6.084 6.084 0 0 1-3.39-7.353c.07-.22.115-.446.132-.675a3.05 3.05 0 0 0-5.48-2.022 2.924 2.924 0 0 0-.338.6 6.084 6.084 0 0 1-7.353 3.39 2.922 2.922 0 0 0-.675-.133 3.05 3.05 0 0 0-2.022 5.48c.186.137.387.25.6.338a6.084 6.084 0 0 1 3.39 7.353c-.071.22-.116.446-.133.675a3.05 3.05 0 0 0 5.48 2.022c.136-.186.25-.387.338-.6a6.084 6.084 0 0 1 7.353-3.39c.22.071.446.116.675.133a3.05 3.05 0 0 0 2.022-5.48 2.924 2.924 0 0 0-.6-.338ZM247.436 8.396a6.083 6.083 0 0 1-7.873-1.889 2.966 2.966 0 0 0-.448-.521 3.053 3.053 0 0 0-4.862 1.14 3.051 3.051 0 0 0-.119 1.913c.062.222.15.435.262.636a6.083 6.083 0 0 1-1.889 7.873 2.891 2.891 0 0 0-.521.449 3.05 3.05 0 0 0 3.053 4.98c.222-.062.435-.15.636-.261a6.085 6.085 0 0 1 7.874 1.888c.128.19.278.366.448.521a3.05 3.05 0 0 0 4.98-3.053 2.923 2.923 0 0 0-.261-.636 6.086 6.086 0 0 1 1.888-7.873c.191-.129.366-.28.522-.449a3.05 3.05 0 0 0-1.141-4.86 3.05 3.05 0 0 0-1.913-.12c-.222.062-.435.15-.636.262ZM356.338 65.615a6.08 6.08 0 0 1-4.18 6.934 2.934 2.934 0 0 0-.633.27 3.05 3.05 0 0 0 1.405 5.67c.23.008.46-.011.685-.057a6.083 6.083 0 0 1 6.934 4.18c.065.221.155.434.269.633a3.053 3.053 0 0 0 4.979.383 3.051 3.051 0 0 0 .692-1.787c.008-.23-.011-.46-.057-.686a6.084 6.084 0 0 1 4.181-6.934c.22-.064.433-.155.632-.269a3.05 3.05 0 0 0-1.405-5.67 2.929 2.929 0 0 0-.685.056 6.083 6.083 0 0 1-6.934-4.18 2.913 2.913 0 0 0-.269-.633 3.052 3.052 0 0 0-5.671 1.405c-.008.23.011.46.057.685ZM44.34 224.264a6.087 6.087 0 0 1-3.39-7.353c.07-.219.115-.446.132-.675a3.051 3.051 0 0 0-5.48-2.022 2.94 2.94 0 0 0-.338.599 6.083 6.083 0 0 1-7.353 3.39 2.928 2.928 0 0 0-.675-.132 3.05 3.05 0 0 0-2.022 5.481c.186.136.387.249.6.337a6.087 6.087 0 0 1 3.39 7.353c-.071.219-.116.446-.133.675a3.051 3.051 0 0 0 5.48 2.022c.136-.186.25-.387.338-.599a6.083 6.083 0 0 1 7.353-3.39c.22.07.446.115.675.132a3.051 3.051 0 0 0 2.022-5.481 2.88 2.88 0 0 0-.6-.337Z"/><path fill="#68DAA9" d="M126.887 116.218a125.971 125.971 0 0 1-28.698-24.592 4.187 4.187 0 0 1-.365-4.903l15.341-24.639a4.145 4.145 0 0 1 5.701-1.326l61.843 38.505a4.145 4.145 0 0 1 1.326 5.701l-15.332 24.625a4.146 4.146 0 0 1-4.6 1.815 131.095 131.095 0 0 1-35.216-15.186Z"/><path fill="#000" d="m181.332 104.526-2.564 4.119-40.772-9.1a3.341 3.341 0 0 1-1.909-1.228l-24.573-32.014 2.354-3.781a3.319 3.319 0 0 1 4.561-1.06l61.842 38.503a3.314 3.314 0 0 1 1.471 2.062 3.317 3.317 0 0 1-.41 2.499Z" opacity=".2"/><path fill="#68DAA9" d="M140.024 94.2a4.142 4.142 0 0 1-1.096-.993l-36.724-47.839a4.138 4.138 0 0 1 1.726-6.355 4.137 4.137 0 0 1 2.49-.198l54.702 12.65a4.182 4.182 0 0 1 2.254 1.39l39.886 48.115a4.143 4.143 0 0 1 .343 4.802 4.137 4.137 0 0 1-4.432 1.879l-57.864-12.925a4.14 4.14 0 0 1-1.285-.527Z"/><path fill="#3F3D56" d="m97.2 65.798-1.405-.876 12.689-20.38 42.869 26.692-.876 1.404-41.463-25.816-11.813 18.976Z"/><path fill="#3F3D56" d="M95.623 70.077a3.311 3.311 0 1 0 0-6.623 3.311 3.311 0 0 0 0 6.623Z"/><path fill="#2F2E41" d="M299.392 274.867c39.381 0 71.305-31.924 71.305-71.305 0-39.381-31.924-71.305-71.305-71.305-39.381 0-71.305 31.924-71.305 71.305 0 39.381 31.924 71.305 71.305 71.305Z"/><path fill="#2F2E41" d="m348.825 240.535-18.484 11.296 20.239 33.117 18.484-11.297-20.239-33.116ZM311.857 263.127l-18.484 11.296 20.24 33.117 18.483-11.296-20.239-33.117Z"/><path fill="#2F2E41" d="M357.426 289.226c8.507-5.199 13.823-12 11.873-15.19-1.949-3.19-10.426-1.561-18.933 3.638s-13.823 11.999-11.873 15.19c1.949 3.19 10.426 1.561 18.933-3.638ZM319.988 311.049c8.507-5.199 13.823-12 11.873-15.19-1.949-3.19-10.426-1.562-18.933 3.637s-13.823 12-11.873 15.19c1.949 3.19 10.426 1.562 18.933-3.637ZM259.299 191.608c4.851-4.848-3.734-21.306-19.177-36.76-15.442-15.455-31.894-24.053-36.745-19.205-4.852 4.848 3.734 21.306 19.176 36.76 15.443 15.454 31.894 24.053 36.746 19.205ZM395.8 264.001c5.633-3.912.099-21.631-12.362-39.576-12.461-17.946-27.129-29.322-32.762-25.41-5.634 3.911-.1 21.63 12.361 39.575 12.461 17.946 27.129 29.322 32.763 25.411Z"/><path fill="#fff" d="M277.557 207.893c13.459 0 24.37-10.911 24.37-24.37 0-13.459-10.911-24.37-24.37-24.37-13.459 0-24.37 10.911-24.37 24.37 0 13.459 10.911 24.37 24.37 24.37Z"/><path fill="#3F3D56" d="M269.279 183.368a8.123 8.123 0 1 0-.001-16.247 8.123 8.123 0 0 0 .001 16.247Z"/><path fill="#EC5A72" d="M246.175 224.175c-4.621 7.571 1.536 17.814 13.752 22.878 12.217 5.064 25.866 3.031 30.487-4.54l.017-.027c4.609-7.576-4.343-13.245-16.564-18.301-12.221-5.057-23.083-7.586-27.692-.01Z"/><path fill="#F0F0F0" d="M365.664 347.223a3.661 3.661 0 0 0-2.335 4.614l2.38 7.257a3.66 3.66 0 0 0 4.614 2.335l55.9-18.335a3.66 3.66 0 0 0 2.335-4.614l-2.381-7.257a3.662 3.662 0 0 0-4.613-2.334l-27.95 9.167-27.95 9.167Z"/><path fill="#68DAA9" d="M396.226 331.846a1.588 1.588 0 0 0-1.878 1.227l-.897 4.279-3.355-3.355a1.583 1.583 0 0 0-2.242 0 1.582 1.582 0 0 0 0 2.242l2.611 2.611-.581.191 4.801 14.636 7.748-2.542-4.801-14.636-.818.269.638-3.044a1.587 1.587 0 0 0-1.226-1.878Z"/></svg>