<svg xmlns="http://www.w3.org/2000/svg" width="149" height="204" fill="none"><path fill="#000" fill-rule="evenodd" d="M149 0C54.338 0 40.015 86.594 33.41 126.527L33 129h3.65c4.015-20.065 14.433-48.303 29.87-72.222 15.5-24.017 36.503-44.347 61.741-46.767a2.5 2.5 0 0 1 .478 4.978c-22.865 2.192-42.733 20.817-58.018 44.5C55.888 82.472 45.79 109.59 41.752 129h4.126c4.291-21.498 15.036-33.324 32.233-35.475 25.778-3.225 46.945-32.25 53.389-51.6H120l3.068-3.07 3.376-3.38C132.889 29.025 139.36 19.35 149 0ZM71.347 203.5H9.12a8.228 8.228 0 0 1-7.947-10.365l5.906-21.986A24.506 24.506 0 0 1 30.75 153H50.79a23.673 23.673 0 0 1 22.948 17.852l5.658 22.3a8.306 8.306 0 0 1-8.05 10.348Zm-52.097-58h41a5.75 5.75 0 1 0 0-11.5h-41a5.75 5.75 0 1 0 0 11.5Z" clip-rule="evenodd"/></svg>