<svg xmlns="http://www.w3.org/2000/svg" width="17" height="24" fill="none"><path fill="#3FA87E" fill-rule="evenodd" d="M16.881 1.377c.358-.657-.137-1.44-.88-1.373C5.558.956 3.887 11.083 3.096 15.876l-.052.311a.572.572 0 0 0 .555-.449c.563-2.49 1.831-5.812 3.66-8.651 1.948-3.027 4.59-5.589 7.762-5.893a.314.314 0 0 1 .268.512.314.314 0 0 1-.208.115c-2.875.276-5.372 2.623-7.294 5.607-1.74 2.701-2.961 5.856-3.53 8.252a.413.413 0 0 0 .406.507c.54-2.709 1.89-4.199 4.053-4.47 2.77-.347 5.115-3.068 6.245-5.374.265-.54-.153-1.128-.753-1.128h-.225l.385-.387.425-.426c.631-.633 1.265-1.513 2.087-3.025ZM1.16 17.447a.757.757 0 0 1 .754-.756h4.024a.754.754 0 0 1 .754.757v.378a.126.126 0 0 1-.125.125H1.285a.126.126 0 0 1-.126-.125v-.378Zm.866 1.009h3.83a1.13 1.13 0 0 1 1.078.788l1.046 3.276A1.134 1.134 0 0 1 6.9 24H1.132a1.134 1.134 0 0 1-1.091-1.433l.892-3.276a1.134 1.134 0 0 1 1.092-.835Z" clip-rule="evenodd"/></svg>