<svg xmlns="http://www.w3.org/2000/svg" width="136" height="191" fill="none"><path fill="#68DAA9" fill-rule="evenodd" d="M135.045 11.47C137.89 6.254 133.959.034 128.041.572 44.994 8.125 31.701 88.492 25.41 126.527L25 129c2.122 0 3.943-1.496 4.412-3.566 4.477-19.756 14.565-46.122 29.108-68.656 15.5-24.017 36.503-44.347 61.741-46.767a2.501 2.501 0 0 1 .478 4.978c-22.865 2.192-42.733 20.817-58.018 44.5-13.834 21.435-23.549 46.466-28.07 65.487-.493 2.071 1.099 4.024 3.227 4.024 4.291-21.498 15.036-33.324 32.233-35.475 22.026-2.756 40.686-24.348 49.671-42.646 2.105-4.288-1.214-8.954-5.991-8.954H112l3.068-3.07 3.376-3.38c5.022-5.026 10.06-12.01 16.601-24.005ZM10 139a6 6 0 0 1 6-6h32a6 6 0 0 1 6 6v3a1 1 0 0 1-1 1H11a1 1 0 0 1-1-1v-3Zm6.884 8h30.464a9 9 0 0 1 8.572 6.257l8.321 26C66.101 185.064 61.767 191 55.67 191H9.786c-5.935 0-10.245-5.644-8.682-11.37l7.098-26a9 9 0 0 1 8.682-6.63Z" clip-rule="evenodd"/></svg>